<mxfile host="app.diagrams.net" modified="2024-05-24T05:09:26.586Z" agent="Mozilla/5.0 (Macintosh; Intel Mac OS X 10_15_7) AppleWebKit/537.36 (KHTML, like Gecko) Chrome/125.0.0.0 Safari/537.36" version="24.4.7" etag="q0CmoGsphE2mYFM3OAt0" type="github">
  <diagram name="Page-1" id="fglZxl2HNS5M-8W8f1r9">
    <mxGraphModel>
      <root>
        <mxCell id="0" />
        <mxCell id="1" parent="0" />
      </root>
    </mxGraphModel>
  </diagram>
</mxfile>
